<?xml version="1.0" encoding="utf-8"?>
<!-- Generator: Adobe Illustrator 21.0.0, SVG Export Plug-In . SVG Version: 6.00 Build 0)  -->
<svg version="1.1" id="Vrstva_1" xmlns="http://www.w3.org/2000/svg" xmlns:xlink="http://www.w3.org/1999/xlink" x="0px" y="0px"
	 viewBox="0 0 600 800" style="enable-background:new 0 0 600 800;" xml:space="preserve">
<g>
	<path d="M556,503c9.4,9.4,9.4,24.6,0,33.9l-80,80c-15,15-41,4.5-41-17v-40h-58.8c-3.3,0-6.5-1.4-8.8-3.8l-70.6-75.6l53.3-57.1
		L403,480h32v-40c0-21.4,25.9-32,41-17L556,503z M63,320h84l52.8,56.6l53.3-57.1l-70.6-75.6c-2.3-2.4-5.4-3.8-8.8-3.8H63
		c-6.6,0-12,5.4-12,12v56C51,314.6,56.4,320,63,320z M435,320v40c0,21.5,26,32,41,17l80-80c9.4-9.4,9.4-24.6,0-33.9l-80-80
		c-15-15-41-4.5-41,17v40h-58.8c-3.3,0-6.5,1.4-8.8,3.8L147,480H63c-6.6,0-12,5.4-12,12v56c0,6.6,5.4,12,12,12h110.8
		c3.3,0,6.5-1.4,8.8-3.8L403,320H435z"/>
</g>
</svg>
